<?xml version="1.0" encoding="UTF-8"?>
<svg version="1.1" xmlns="http://www.w3.org/2000/svg" width="1125" height="231">
<path d="M0 0 C16.76941761 -0.09067189 33.53862246 -0.16419647 50.308218 -0.20724869 C58.09651916 -0.22777949 65.88465597 -0.25571594 73.67285156 -0.30175781 C80.46959895 -0.34191897 87.2662272 -0.36750149 94.06308997 -0.37635398 C97.65427463 -0.38151984 101.24511877 -0.39345691 104.83619308 -0.42292023 C137.01080868 -0.67640927 166.18752189 5.19895086 191 27 C191.80566406 27.66257812 192.61132812 28.32515625 193.44140625 29.0078125 C216.29716841 48.39407712 229.18099452 77.52248808 231.71484375 106.98828125 C233.78156432 137.2118616 224.34730843 166.73716487 205 190 C204.24203125 190.92167969 203.4840625 191.84335938 202.703125 192.79296875 C184.68296805 213.66926169 158.33833977 227.43105689 131 231 C125.65877015 231.37027206 120.34341253 231.26207473 115 231 C109.02775642 220.33022096 106.34924868 210.24376559 107 198 C111.52214492 195.65196322 115.98451291 193.61836879 120.75 191.8125 C137.37147267 184.9252651 149.45800073 171.00789346 157 155 C158.35111344 150.98606715 159 147.25596331 159 143 C155.74921235 142.16840316 153.73390359 141.69192702 150.58984375 143.01171875 C147.12272444 145.67350416 145.40924634 148.75110311 143.25 152.5 C134.9063387 166.36230342 126.04081701 177.33010521 110.23828125 182.5859375 C97.21109804 184.99585272 85.44948058 182.82702833 74.4375 175.5625 C65.16340268 168.43163202 59.01042081 158.56676424 53.375 148.4609375 C51.52232637 144.57260679 51.52232637 144.57260679 48.08984375 142.453125 C46.06328901 142.2618712 44.03146886 142.12898215 42 142 C40.60684164 143.17935148 40.60684164 143.17935148 40.6875 146.5 C40.77936075 151.67176051 42.56332843 155.50715813 45 160 C45.43957031 160.83273438 45.87914063 161.66546875 46.33203125 162.5234375 C52.82715448 173.73780216 64.08115473 187.08472462 77.08300781 190.55615234 C77.86256836 190.75805176 78.64212891 190.95995117 79.4453125 191.16796875 C89.33614642 193.95908349 89.33614642 193.95908349 93 197 C95.6964662 202.07985955 95.56361979 208.01413647 95.80615234 213.64111328 C96.18086038 218.20084756 97.76313291 222.31482896 99.23046875 226.62890625 C100 229 100 229 100 231 C67 231 34 231 0 231 C0 217.8 0 204.6 0 191 C-11.88 191 -23.76 191 -36 191 C-36 141.17 -36 91.34 -36 40 C-24.12 40 -12.24 40 0 40 C0 26.8 0 13.6 0 0 Z M66.625 46 C62.59060888 49.98636266 58.28828355 51.76592727 53.125 53.875 C42.37695755 58.38425506 34.76586675 63.85194572 29.83984375 74.73828125 C22.9748869 93.22576971 29.09243589 118.26691984 36 136 C36.33 136.33 36.66 136.66 37 137 C39.33944736 136.71269945 41.6739143 136.38063221 44 136 C43.60792675 134.10338548 43.21092904 132.20778952 42.8125 130.3125 C42.544375 129.03632813 42.27625 127.76015625 42 126.4453125 C41.30824835 123.27046068 40.52202205 120.13243641 39.6875 116.9921875 C35.8669673 102.42623734 32.37893185 87.00371273 40 73 C43.79229792 66.79011215 49.20241924 63.39441695 56 61 C59.97474156 60.55978091 63.82817132 60.74077237 67.8125 61 C75.43313088 61.70919536 75.43313088 61.70919536 82.19140625 58.78515625 C84.60936098 55.06161042 84.46546445 53.31161624 83.69921875 49.09375 C83.05701977 46.76659423 83.05701977 46.76659423 80.9375 44.4375 C75.18462577 41.62226367 71.13249149 41.51304378 66.625 46 Z M118 45 C115.61580759 47.92605433 115.51380507 51.30926344 115.625 55.02734375 C116.30472728 58.60299248 118.0808787 60.01251316 121 62 C124.78909795 62.48224883 127.29541796 62.26038902 130.875 60.9375 C136.53262843 59.24021147 141.8130215 60.22710686 147.125 62.6875 C155.07061766 67.1263043 159.94744293 72.29831243 163 81 C166.23076113 94.66210751 161.90868757 109.36969107 158.21875 122.52734375 C156.9726522 126.98234056 155.95860784 131.47539779 155 136 C157.31 136.66 159.62 137.32 162 138 C164.63924173 131.43350335 166.44080463 124.80546251 168.125 117.9375 C168.38925781 116.88755859 168.65351563 115.83761719 168.92578125 114.75585938 C172.78293713 99.19996928 174.58674044 83.32955475 166.75 68.66015625 C160.84418861 59.91888428 151.98400318 55.78917966 142.41088867 52.2800293 C137.57690576 50.43524752 134.23603396 48.16648681 130.7109375 44.41796875 C126.27839573 40.74442386 122.48292939 42.11100106 118 45 Z " fill="#A1CBD9" transform="translate(36,0)"/>
<path d="M0 0 C1.27922927 1.07340623 2.55013137 2.15681479 3.8125 3.25 C4.6375 3.88679688 5.4625 4.52359375 6.3125 5.1796875 C20.36640615 16.81807853 28.86914081 36.3671695 30.8125 54.25 C32.23709636 77.38057358 26.90234581 98.78118714 11.375 116.5 C-3.57889 132.46428797 -22.65266014 142.40750728 -44.7109375 143.41015625 C-67.78442342 144.08006843 -88.03933227 136.72342145 -104.95605469 120.99853516 C-119.85357374 106.53917843 -128.01681237 87.14709877 -128.54101562 66.48974609 C-128.71764145 43.96593888 -121.68099605 23.35887388 -105.90625 6.84765625 C-77.20978381 -20.57066274 -31.86939839 -24.53521565 0 0 Z M-104.0625 12.375 C-107.62333711 21.47491705 -106.13599525 30.34556301 -102.36865234 39.16748047 C-87.88512622 70.92663043 -59.55290963 103.26094092 -26.50390625 116.75390625 C-13.72862186 121.50605726 -13.72862186 121.50605726 -0.5 120 C3.83074775 117.71205779 6.06379744 115.93458076 8.0625 111.4375 C11.38893684 97.30014343 3.8818879 83.2817719 -3.25927734 71.47851562 C-21.25532383 43.06109972 -49.3577033 16.25990083 -82.15234375 6.67578125 C-90.69477454 4.88859323 -98.09603895 5.61301081 -104.0625 12.375 Z " fill="#A1CBD9" transform="translate(409.1875,65.75)"/>
<path d="M0 0 C0.99 0 1.98 0 3 0 C3.33 6.6 3.66 13.2 4 20 C5.051875 18.7625 6.10375 17.525 7.1875 16.25 C15.63594361 6.67172461 24.50341208 3.34784251 37.0625 2.1875 C48.81655609 1.62778304 59.86643261 5.53335243 68.90234375 13.0234375 C81.31290233 24.71755787 86.59513301 40.47599824 87.203125 57.2265625 C87.5310652 75.87921225 83.68485279 92.84651206 71.0390625 107.23046875 C60.33849434 117.51335674 47.8395126 121.51493288 33.2890625 121.28515625 C25.93746504 120.96531194 19.17304465 118.31285666 14 113 C9.75620081 107.57895003 6.65094326 102.31788069 4 96 C3.95025663 102.22557433 3.91411872 108.45103084 3.89013672 114.67675781 C3.88013021 116.79103615 3.86652082 118.90530083 3.84912109 121.01953125 C3.82463612 124.07295114 3.81346309 127.12618674 3.8046875 130.1796875 C3.79436493 131.11239471 3.78404236 132.04510193 3.77340698 133.006073 C3.77219506 140.22794783 4.17903539 147.50374794 7.5625 154 C11.03902877 156.85253643 14.61930384 157.37284905 19 158 C19 159.32 19 160.64 19 162 C-3.77 162 -26.54 162 -50 162 C-50 160.68 -50 159.36 -50 158 C-49.39671875 157.90203125 -48.7934375 157.8040625 -48.171875 157.703125 C-44.51045193 157.01808455 -41.65341283 156.45236273 -38.5625 154.3125 C-34.3957103 148.14565125 -34.7077244 141.2348112 -34.7253418 134.06689453 C-34.72023087 132.98792908 -34.71511993 131.90896362 -34.70985413 130.79730225 C-34.69599215 127.24241538 -34.69691242 123.68772313 -34.69921875 120.1328125 C-34.69532989 117.65330941 -34.69099483 115.17380699 -34.68623352 112.69430542 C-34.67877854 107.501097 -34.67905734 102.30795657 -34.68432617 97.11474609 C-34.69011895 90.47154413 -34.67319062 83.8286282 -34.6499815 77.18545723 C-34.63522402 72.06552513 -34.63437524 66.9456599 -34.63749123 61.8257103 C-34.63697901 59.37698692 -34.63175994 56.92825971 -34.62167931 54.47955704 C-34.60929388 51.05015371 -34.6161198 47.62128973 -34.62768555 44.19189453 C-34.62004181 43.18796661 -34.61239807 42.1840387 -34.60452271 41.14968872 C-34.65400604 34.4856014 -35.1279315 27.29756013 -39.6875 22.0625 C-43.04348158 20.52056252 -46.39006673 19.78215221 -50 19 C-50 18.01 -50 17.02 -50 16 C-48.48031616 15.97812622 -48.48031616 15.97812622 -46.92993164 15.95581055 C-43.13320469 15.89737572 -39.33704313 15.82015027 -35.54077148 15.73754883 C-33.90479786 15.70451025 -32.26871601 15.6764143 -30.63256836 15.65356445 C-16.42610025 15.74017725 -16.42610025 15.74017725 -3.5625 10.3125 C-1.33091897 7.00976008 -0.78036538 3.9018269 0 0 Z M8 22 C2.88772026 30.97227194 2.7961581 39.17250123 2.8125 49.3125 C2.81310425 49.99228912 2.8137085 50.67207825 2.81433105 51.37246704 C2.82271189 77.08610882 2.82271189 77.08610882 15 99 C18.52081464 101.72863135 21.54233217 102.82855124 26 103 C32.76948698 102.04371559 36.9543701 98.95109418 41.2109375 93.7109375 C52.55179781 76.52631511 51.82406939 52.51144495 48 33 C45.8317295 24.13927923 42.81551562 16.34992391 35.125 11 C23.6484465 7.32750288 15.04940007 13.10618927 8 22 Z " fill="#A1CBD9" transform="translate(638,49)"/>
<path d="M0 0 C2.37162064 1.8804566 4.63580497 3.82627945 6.890625 5.84375 C7.72464844 6.49085937 8.55867187 7.13796875 9.41796875 7.8046875 C23.60493413 19.50389118 31.65139147 38.92988175 33.890625 56.84375 C35.26126005 80.43066245 30.38655639 102.05752124 14.390625 120.09375 C12.89675424 121.68286755 11.39722599 123.26669645 9.890625 124.84375 C9.06304688 125.78347656 9.06304688 125.78347656 8.21875 126.7421875 C-4.05273512 140.16792122 -23.38819717 147.12190035 -41.2109375 148.12890625 C-57.00833682 148.64461941 -76.88899912 147.0074402 -89.359375 136.46875 C-91.94719845 134.34579144 -91.94719845 134.34579144 -95.13671875 133.6875 C-96.60626358 133.87883314 -98.06977939 134.12197491 -99.5234375 134.41015625 C-104.65640216 135.27081951 -109.91850907 134.91595679 -115.109375 134.84375 C-115.13743659 133.40637294 -115.15622498 131.96881577 -115.171875 130.53125 C-115.18734375 129.15646484 -115.18734375 129.15646484 -115.203125 127.75390625 C-115.11109373 124.89710227 -114.66285995 122.27963886 -114.171875 119.46875 C-113.55047916 113.39098791 -115.9662041 110.05296013 -119.19140625 105.0703125 C-129.72639624 87.34749839 -130.11776614 64.58057645 -125.65722656 44.96484375 C-120.1943677 23.81452386 -106.55870861 7.1342035 -88.109375 -4.15625 C-60.85882903 -19.40758437 -25.63636396 -17.77798104 0 0 Z M-98.921875 28.09375 C-108.56373407 41.31889166 -113.89421176 57.9334308 -111.640625 74.234375 C-110.45137366 81.11504345 -108.86214487 86.71845009 -105.859375 93.03125 C-102.78052226 99.79100837 -102.66757435 104.64469021 -104.109375 111.84375 C-104.28597656 112.77703125 -104.46257813 113.7103125 -104.64453125 114.671875 C-104.97544552 116.34850728 -105.32660595 118.02140378 -105.70703125 119.6875 C-106.23166052 122.13352767 -106.23166052 122.13352767 -106.109375 125.84375 C-101.98587181 126.02303275 -98.44943051 125.76768034 -94.421875 124.84375 C-84.87024891 122.86106398 -77.86433189 123.14516846 -69.1328125 127.5234375 C-57.46345973 132.61935641 -45.36786687 132.39535238 -33.109375 129.84375 C-30.74054163 128.87776446 -30.74054163 128.87776446 -29.109375 127.84375 C-30.03878906 127.575625 -30.96820312 127.3075 -31.92578125 127.03125 C-40.04627205 124.45707982 -45.07347836 121.90286611 -50.109375 114.84375 C-52.57313654 111.85100437 -55.03834056 111.02716859 -58.671875 109.78125 C-69.10651543 105.54178303 -75.47361171 97.81030218 -80.07421875 87.69921875 C-81.2281049 84.5162347 -81.67955466 81.80199026 -81.83203125 78.44140625 C-82.21376904 74.86597486 -83.22439755 71.48851325 -84.171875 68.03125 C-86.44836096 59.38483587 -88.07707702 50.06060425 -84.26171875 41.5859375 C-79.88303855 34.96596675 -72.87724846 32.80891181 -65.55078125 30.80078125 C-64.74511719 30.48496094 -63.93945312 30.16914062 -63.109375 29.84375 C-62.614375 28.35875 -62.614375 28.35875 -62.109375 26.84375 C-59.799375 27.50375 -57.489375 28.16375 -55.109375 28.84375 C-55.109375 32.14375 -55.109375 35.44375 -55.109375 38.84375 C-56.553125 38.26625 -57.996875 37.68875 -59.484375 37.09375 C-64.77575603 35.51008844 -67.97241255 36.11814047 -72.90625 38.4609375 C-77.09167853 41.08796179 -79.52817726 44.10015677 -81.109375 48.84375 C-81.40470709 54.46096635 -80.79228061 59.05955158 -78.984375 64.40625 C-78.6455127 65.43226318 -78.6455127 65.43226318 -78.29980469 66.47900391 C-77.58562233 68.60640757 -76.84853769 70.72491513 -76.109375 72.84375 C-75.88475586 73.51486816 -75.66013672 74.18598633 -75.42871094 74.87744141 C-71.58278739 86.26126313 -65.93660515 95.91455254 -55.109375 101.84375 C-49.91338401 103.575747 -44.03498754 103.97444601 -38.85546875 101.97265625 C-31.39495819 97.51970963 -26.09189179 91.59726974 -22.25 83.859375 C-21.109375 81.84375 -21.109375 81.84375 -19.6015625 80.4765625 C-17.41761314 78.08679592 -16.88172887 75.5564952 -15.984375 72.46875 C-15.48550781 70.78652344 -15.48550781 70.78652344 -14.9765625 69.0703125 C-12.95124608 61.53467574 -10.95810544 52.224874 -14.609375 44.90625 C-18.24725605 40.44984571 -22.2671776 38.0097797 -27.546875 35.84375 C-31.72060682 35.84375 -35.21555607 37.39083249 -39.109375 38.84375 C-39.109375 35.21375 -39.109375 31.58375 -39.109375 27.84375 C-34.41022169 27.52335318 -32.77134859 28.08050253 -29.109375 30.84375 C-27.33942435 31.54691771 -25.5449224 32.1904131 -23.734375 32.78125 C-18.16841767 34.74046698 -13.85910694 36.43032663 -10.296875 41.34375 C-4.70226508 53.12187616 -9.3942894 66.49009981 -12.48608398 78.34594727 C-13.09236674 80.77559037 -13.60533676 83.21069513 -14.10546875 85.6640625 C-15.95521444 94.0967814 -20.94814574 101.07857113 -28.109375 105.84375 C-31.71911211 107.96081203 -35.38169461 109.94283523 -39.109375 111.84375 C-38.13236435 114.39453997 -37.55378895 115.60284459 -35.11328125 116.92578125 C-23.19152813 120.49276978 -12.65485029 117.90669823 -1.859375 112.09375 C5.42485078 106.13392891 9.59029537 99.61807464 12.890625 90.84375 C13.28507812 89.83957031 13.67953125 88.83539063 14.0859375 87.80078125 C19.96072386 70.60778761 18.24170543 52.24342836 10.5390625 35.9921875 C1.6395054 19.93321017 -13.19385013 9.2956508 -30.546875 4.03125 C-57.37226078 -2.03059042 -81.45400555 7.42148392 -98.921875 28.09375 Z " fill="#A0CAD8" transform="translate(855.109375,64.15625)"/>
<path d="M0 0 C1.65 0 3.3 0 5 0 C5.495 19.8 5.495 19.8 6 40 C7.65 37.36 9.3 34.72 11 32 C15.87217684 26.64060547 20.62497895 22.85616216 27.4375 20.3125 C28.52933594 19.89613281 29.62117187 19.47976562 30.74609375 19.05078125 C36.65089423 17.14394892 42.29429058 16.86027063 48.4609375 16.90234375 C49.6467894 16.90446617 49.6467894 16.90446617 50.8565979 16.90663147 C53.36277166 16.91219496 55.86885358 16.92474056 58.375 16.9375 C60.08202995 16.94251972 61.78906132 16.9470818 63.49609375 16.95117188 C67.66409748 16.96215241 71.83203321 16.97939161 76 17 C78.58149588 38.9791991 80.96102404 60.96355594 83 83 C81.35 83 79.7 83 78 83 C77.76925781 81.92363281 77.53851562 80.84726563 77.30078125 79.73828125 C73.20685616 61.18114637 67.08854205 41.0769223 50.8125 29.5 C43.83310876 25.77765801 36.56118079 24.53342312 28.79296875 26.58203125 C20.33342179 30.23615508 14.52574501 38.26689192 11.17701721 46.6111145 C6.6912947 59.52647362 5.39614242 72.30053083 5.50390625 85.8828125 C5.50375063 87.51944035 5.50225124 89.15606855 5.49949646 90.79269409 C5.49812851 94.18260464 5.51040987 97.57208374 5.53344727 100.96191406 C5.56205676 105.28789573 5.55901162 109.61317532 5.54635715 113.93921089 C5.53938471 117.30227591 5.54720332 120.66518044 5.55961418 124.02822495 C5.56409747 125.62369038 5.56449311 127.21917319 5.56054878 128.81464005 C5.4552052 142.04121316 5.4552052 142.04121316 11.0625 153.8125 C15.06203909 156.79088017 19.19490111 157.85237444 24 159 C24 160.32 24 161.64 24 163 C-4.38 163 -32.76 163 -62 163 C-62 161.68 -62 160.36 -62 159 C-61.26394531 158.84144531 -60.52789063 158.68289062 -59.76953125 158.51953125 C-51.75160264 156.63980037 -51.75160264 156.63980037 -46 151 C-43.19316157 144.65202044 -42.56137385 138.753452 -42.59594727 131.88134766 C-42.58908401 130.91259201 -42.58222076 129.94383636 -42.57514954 128.94572449 C-42.55696624 125.76835137 -42.5607073 122.59147609 -42.56640625 119.4140625 C-42.56184013 117.18883099 -42.55653328 114.96360088 -42.55052185 112.7383728 C-42.54160714 108.08333595 -42.54399496 103.42847081 -42.55395508 98.7734375 C-42.56543757 92.82987736 -42.54523536 86.886912 -42.51603794 80.94342995 C-42.49762565 76.35011068 -42.49797853 71.7569326 -42.50367546 67.16358566 C-42.50382809 64.97329245 -42.49783279 62.78298931 -42.48538399 60.59273148 C-41.72920597 43.45525809 -41.72920597 43.45525809 -48.45240784 28.29312134 C-50.79056662 26.33942637 -53.24360778 25.97724986 -56.1875 25.3125 C-57.27417969 25.06113281 -58.36085938 24.80976562 -59.48046875 24.55078125 C-60.31191406 24.36902344 -61.14335938 24.18726562 -62 24 C-62 22.68 -62 21.36 -62 20 C-60.70900391 19.98018066 -59.41800781 19.96036133 -58.08789062 19.93994141 C-53.27194593 19.86354015 -48.45628983 19.7748771 -43.640625 19.68261719 C-41.56125612 19.64446956 -39.48182445 19.60959255 -37.40234375 19.578125 C-34.40341842 19.53216446 -31.40492012 19.47422236 -28.40625 19.4140625 C-27.02451599 19.39673569 -27.02451599 19.39673569 -25.61486816 19.37905884 C-20.09048728 19.25436654 -15.31219217 18.52911291 -10 17 C-8.88625 16.731875 -7.7725 16.46375 -6.625 16.1875 C-3.89635671 15.24517974 -3.89635671 15.24517974 -2.75 13 C-1.67388153 8.69552614 -0.79658604 4.3642746 0 0 Z " fill="#A1CBD9" transform="translate(943,47)"/>
<path d="M0 0 C0.65786499 0.00304138 1.31572998 0.00608276 1.99353027 0.00921631 C15.86023171 0.103986 30.15994695 1.06195613 41.25 10.4375 C44.96057151 14.35937968 46.53952286 18.04413355 46.8125 23.4375 C46.40590977 30.41373239 43.87409809 35.24881823 38.6875 39.875 C35.10546974 42.80285102 32.03099696 43.6159348 27.4375 43.75 C26.19033203 43.80607422 26.19033203 43.80607422 24.91796875 43.86328125 C21.13210281 43.25909474 19.18889239 41.89760595 16.25 39.4375 C14.53049036 36.95721409 13.21432917 34.32505536 11.875 31.625 C7.3329944 23.06658157 2.79852675 17.3735642 -6.53100586 14.03735352 C-10.34856229 13.00536582 -14.06669758 12.99288403 -18 13.0625 C-18.83265381 13.07265137 -19.66530762 13.08280273 -20.52319336 13.09326172 C-31.27538809 13.36204054 -41.25888801 15.43949651 -49.75 22.4375 C-54.79041715 28.35049445 -57.22335239 33.72447196 -57.08203125 41.57421875 C-53.69349579 70.79535398 -28.87003611 98.38826917 -6.82421875 116.04296875 C-5.30248047 117.22826172 -5.30248047 117.22826172 -3.75 118.4375 C-3.21455566 118.85467285 -2.67911133 119.2718457 -2.12744141 119.70166016 C11.02282041 129.83055226 26.08615195 139.06429329 43.25 137.4375 C46.65241824 136.0726132 46.65241824 136.0726132 49.25 134.4375 C50.57 134.4375 51.89 134.4375 53.25 134.4375 C53.25 138.4375 53.25 138.4375 51.7734375 140.296875 C35.51866355 154.60107608 15.41359068 162.10702591 -6.296875 161.6875 C-29.35382002 160.01821891 -49.03258439 149.87830371 -64.2578125 132.58984375 C-78.88004334 114.17574627 -83.68465764 92.61020732 -81.75 69.4375 C-79.84124194 53.29921575 -72.73070129 38.3721624 -61.75 26.4375 C-61.00105469 25.59703125 -60.25210937 24.7565625 -59.48046875 23.890625 C-43.77231407 7.14202712 -22.54515925 -0.18065951 0 0 Z " fill="#A1CBD9" transform="translate(528.75,48.5625)"/>
<path d="M0 0 C1.65 0 3.3 0 5 0 C5 14.52 5 29.04 5 44 C12.92 44 20.84 44 29 44 C29 45.32 29 46.64 29 48 C21.08 48 13.16 48 5 48 C5.08571692 62.24817242 5.17957816 76.49622863 5.28752708 90.7442503 C5.33733903 97.36113603 5.38366988 103.97800696 5.421875 110.5949707 C5.45891919 116.98819132 5.50532984 123.38128331 5.55806351 129.77439308 C5.57650622 132.20582623 5.59165095 134.63728685 5.60334396 137.06876183 C4.57806387 157.90214948 4.57806387 157.90214948 11 177 C14.66945295 178.83472647 19.15496229 178.54182489 23.03515625 177.40234375 C25.92801997 175.33765573 27.10086283 172.5140262 28.5625 169.375 C28.86551025 168.74706543 29.16852051 168.11913086 29.48071289 167.47216797 C31.58278567 163.05866848 33.42732956 158.62550128 35 154 C36.32 154 37.64 154 39 154 C38.43763872 158.70362087 37.5103547 162.9073057 35.93359375 167.37109375 C35.53076172 168.52158203 35.12792969 169.67207031 34.71289062 170.85742188 C34.29201172 172.03884766 33.87113281 173.22027344 33.4375 174.4375 C32.80038086 176.25024414 32.80038086 176.25024414 32.15039062 178.09960938 C31.1060029 181.06848683 30.05572123 184.03513782 29 187 C24.52005161 187.07512813 20.04045375 187.12905469 15.56005859 187.16479492 C14.04143879 187.17972112 12.52286083 187.20006959 11.00439453 187.22631836 C-3.27315858 187.46663361 -15.67721734 186.49267188 -26.7109375 176.44140625 C-38.80650484 163.63975249 -40.68030116 142.40901005 -41.5390625 125.6015625 C-41.58100739 124.79361237 -41.62295227 123.98566223 -41.66616821 123.15322876 C-41.99402664 116.27805612 -42.12332991 109.40538502 -42.2109375 102.5234375 C-42.22529846 101.45103821 -42.23965942 100.37863892 -42.25445557 99.27374268 C-42.3117287 94.84838338 -42.36681716 90.42316107 -42.40136719 85.99755859 C-42.42903444 82.71421868 -42.47481709 79.43152528 -42.5234375 76.1484375 C-42.52669037 75.16080414 -42.52994324 74.17317078 -42.53329468 73.15560913 C-42.66366364 65.76594766 -43.71730298 59.28137697 -48 53.125 C-52.30747028 50.07387522 -56.88802548 49.1011784 -62 48 C-62 46.68 -62 45.36 -62 44 C-60.1128125 43.85304688 -60.1128125 43.85304688 -58.1875 43.703125 C-42.72515973 42.39751748 -28.29507281 40.63470031 -15 32 C-13.6078125 31.1028125 -13.6078125 31.1028125 -12.1875 30.1875 C-3.63420609 21.63420609 -0.7137963 11.78994577 0 0 Z " fill="#A1CBD9" transform="translate(1086,23)"/>
<path d="M0 0 C0.625 2.3125 0.625 2.3125 1 5 C0.01 6.485 0.01 6.485 -1 8 C-4 8.375 -4 8.375 -7 8 C-9 5 -9 5 -8.75 2.375 C-8.5025 1.59125 -8.255 0.8075 -8 0 C-5.13822943 -1.43088528 -3.06624227 -0.59991697 0 0 Z " fill="#9DC6D3" transform="translate(812,128)"/>
<path d="M0 0 C0.93065133 2.60582371 1.14917407 3.64198224 0.0625 6.25 C-0.288125 6.8275 -0.63875 7.405 -1 8 C-3.875 8.1875 -3.875 8.1875 -7 8 C-9 5 -9 5 -8.75 2.375 C-8.5025 1.59125 -8.255 0.8075 -8 0 C-5.13822943 -1.43088528 -3.06624227 -0.59991697 0 0 Z " fill="#9EC7D5" transform="translate(830,128)"/>
<path d="M0 0 C1.2375 0.1546875 1.2375 0.1546875 2.5 0.3125 C4.5 3.3125 4.5 3.3125 4.1875 5.9375 C3.5 8.3125 3.5 8.3125 2.5 9.3125 C-0.5 9.4375 -0.5 9.4375 -3.5 9.3125 C-4.5 8.3125 -4.5 8.3125 -4.6875 5.375 C-4.45331344 1.54995285 -3.86571441 0.4832143 0 0 Z " fill="#9DC7D5" transform="translate(790.5,126.6875)"/>
</svg>
