<?xml version="1.0" encoding="UTF-8"?>
<svg version="1.1" xmlns="http://www.w3.org/2000/svg" width="1163" height="1006">
<path d="M0 0 C61.47765566 -0.06021772 61.47765566 -0.06021772 80.74841309 -0.07695007 C81.42932256 -0.07754207 82.11023204 -0.07813408 82.81177514 -0.07874402 C105.76143696 -0.0986429 128.71109968 -0.11438497 151.6607666 -0.12702942 C152.78545424 -0.12765068 152.78545424 -0.12765068 153.93286284 -0.12828448 C170.23304959 -0.13726598 186.53323662 -0.14557613 202.83342406 -0.15319599 C210.82856532 -0.15693756 218.82370651 -0.16082729 226.81884766 -0.16479492 C227.61440421 -0.1651872 228.40996076 -0.16557948 229.22962508 -0.16598364 C254.95443083 -0.17873746 280.67921664 -0.20124863 306.40401033 -0.22889166 C332.86885025 -0.25727786 359.33367915 -0.27567674 385.79853403 -0.28174497 C389.54787423 -0.28260927 393.2972144 -0.28358617 397.04655457 -0.28463173 C398.15329652 -0.28493513 398.15329652 -0.28493513 399.2823969 -0.28524467 C411.09613195 -0.28877157 422.90983267 -0.30263597 434.72355379 -0.3204961 C446.63864087 -0.33828414 458.55369437 -0.3448727 470.46879423 -0.34050413 C476.90909517 -0.33859628 483.34929649 -0.34137065 489.78957939 -0.35761642 C521.90003649 -0.43460365 553.41659008 0.14623197 585.125 5.75 C586.226091 5.93941666 586.226091 5.93941666 587.34942627 6.13265991 C630.65577719 13.59853698 672.30142483 26.52840446 712.27734375 44.75976562 C714.68957832 45.85859557 717.10875289 46.9396871 719.53125 48.015625 C730.84958561 53.11272942 741.57229833 59.23032512 752.30810547 65.4453125 C754.68914829 66.82046946 757.07852743 68.17906611 759.47265625 69.53125 C788.72445815 86.19729254 815.78075895 107.21631229 840.640625 129.859375 C842.13786166 131.21779502 843.64704408 132.5632542 845.171875 133.890625 C851.247055 139.21164472 856.96920499 144.86225413 862.6875 150.5625 C863.49566162 151.36606934 864.30382324 152.16963867 865.13647461 152.99755859 C869.96442621 157.83791628 874.55459246 162.80821959 879 168 C880.04535303 169.19144124 881.09220092 170.38157277 882.140625 171.5703125 C889.38551767 179.83374846 896.35148993 188.2496315 903 197 C903.52674316 197.69013184 904.05348633 198.38026367 904.59619141 199.09130859 C918.82807307 217.81659438 931.53237111 237.47290305 943 258 C943.72050537 259.27278809 943.72050537 259.27278809 944.45556641 260.57128906 C982.39222948 327.66058136 1005.92637062 407.71441812 1006.203125 485.14453125 C1006.21371445 487.11842079 1006.21371445 487.11842079 1006.22451782 489.13218689 C1006.24405712 493.35896354 1006.24920991 497.58568242 1006.25 501.8125 C1006.25029457 502.53248672 1006.25058914 503.25247345 1006.25089264 503.99427795 C1006.25229109 525.13745934 1006.10836981 546.03735507 1003 567 C1002.79901322 568.40653223 1002.59834382 569.81310984 1002.39794922 571.21972656 C994.33025367 627.0828259 977.97941675 680.5801541 952.10400391 730.84960938 C951.32786303 732.36138489 950.557187 733.87597243 949.79052734 735.39257812 C930.40663785 773.73108426 905.04398479 808.90756565 876.140625 840.640625 C874.78220498 842.13786166 873.4367458 843.64704408 872.109375 845.171875 C866.78835528 851.247055 861.13774587 856.96920499 855.4375 862.6875 C854.63393066 863.49566162 853.83036133 864.30382324 853.00244141 865.13647461 C848.71225555 869.4156645 844.34724164 873.54053046 839.75317383 877.49194336 C837.5018393 879.42851116 835.31554428 881.4326593 833.125 883.4375 C829.16717617 887.00073717 825.13380731 890.40789214 820.94140625 893.69140625 C818.7819613 895.38626942 816.65049166 897.10084629 814.52734375 898.83984375 C792.39198423 916.74626835 767.91028615 932.27208502 743 946 C742.13616699 946.47937012 741.27233398 946.95874023 740.38232422 947.45263672 C673.75028521 984.17547362 594.55855382 1006.52001846 518.1875 1006.0625 C516.70507966 1006.05746824 515.22265764 1006.05290834 513.74023438 1006.04882812 C510.1601205 1006.0379707 506.58007157 1006.02080135 503 1006 C477.99432648 963.71389058 464.85291009 914.19741166 466 865 C478.27162731 857.87754889 490.11904154 851.72251718 503.73291016 847.68310547 C539.55956212 836.88804062 571.10776661 817.78236805 599 793 C600.08244995 792.04673828 600.08244995 792.04673828 601.18676758 791.07421875 C607.34379381 785.60293491 613.26477632 779.92149239 619.08666992 774.09863281 C620.55955972 772.6279359 622.04030265 771.16546466 623.52148438 769.703125 C629.79068971 763.47075707 635.50521882 756.92972403 641 750 C642.00032257 748.79129601 643.00374465 747.58514307 644.01171875 746.3828125 C666.82812589 718.77437546 699.32183614 673.86893199 696 636 C695.16094637 630.58240679 693.75613381 626.1317472 690 622 C686.78140161 620.28921347 683.44911289 619.15652747 680 618 C679.27554688 617.68804688 678.55109375 617.37609375 677.8046875 617.0546875 C670.40600729 614.02423177 662.83734399 614.51636383 655.26171875 616.83984375 C644.15544519 621.69344075 637.88624691 632.12536769 632.4375 642.4375 C631.23464989 644.64480052 630.02880774 646.85047262 628.8203125 649.0546875 C628.19930664 650.19131836 627.57830078 651.32794922 626.93847656 652.49902344 C618.13566325 668.48634606 608.77097632 684.25730836 598 699 C597.24589844 700.03511719 596.49179687 701.07023438 595.71484375 702.13671875 C593.50684819 705.11576038 591.26380491 708.06317201 589 711 C588.566875 711.56460938 588.13375 712.12921875 587.6875 712.7109375 C582.3700169 719.62970813 576.95108849 726.36114346 571.03125 732.78125 C569.21041875 734.77015799 567.47912594 736.80682976 565.75 738.875 C537.17305011 771.44095205 494.75685565 791.87094815 451.86450195 795.81689453 C406.38657471 798.7239469 362.56330321 789.32626369 326 761 C325.08347656 760.29488281 324.16695313 759.58976563 323.22265625 758.86328125 C312.39669769 750.26292357 301.70918705 740.7714047 293 730 C292.04114029 728.85221611 291.08141301 727.70515675 290.12109375 726.55859375 C271.23020039 703.84342555 256.28509409 678.71230743 241.40429688 653.27197266 C226.42988683 627.38867037 226.42988683 627.38867037 201 613 C189.64576939 611.98117145 189.64576939 611.98117145 179.515625 616.37109375 C172.53758145 623.8706921 172.56789383 633.40426333 172.72265625 643.06640625 C174.21513256 681.03173643 201.4235477 719.30574268 225 747 C225.88578563 748.0595875 226.77118103 749.11950131 227.65625 750.1796875 C239.64857428 764.45391879 252.45438071 777.84602466 266.24462891 790.38867188 C267.92633303 791.93237803 269.58198665 793.49906867 271.23046875 795.078125 C295.28142598 818.00349892 322.13067927 831.58316194 353.25 842.5 C365.507081 846.83087548 377.73712642 851.20856661 389.859375 855.90625 C390.84778381 856.28583862 391.83619263 856.66542725 392.85455322 857.05651855 C393.76332214 857.41234009 394.67209106 857.76816162 395.60839844 858.13476562 C396.4103363 858.44724243 397.21227417 858.75971924 398.03851318 859.08166504 C400 860 400 860 402 862 C402.52840296 864.90924006 402.94580109 867.76359282 403.296875 870.6953125 C403.53228138 872.52867015 403.76788544 874.36200243 404.00366211 876.1953125 C404.12498505 877.16243164 404.24630798 878.12955078 404.37130737 879.12597656 C409.61934131 920.68732646 416.19279131 964.09483523 434.29418945 1002.30395508 C435 1004 435 1004 435 1006 C291.45 1006 147.9 1006 0 1006 C0 947.59 0 889.18 0 829 C-51.81 829 -103.62 829 -157 829 C-157 613.84 -157 398.68 -157 177 C-105.19 177 -53.38 177 0 177 C0 118.59 0 60.18 0 0 Z M511.73828125 197.765625 C503.08494633 209.98586137 499.19373531 224.13682088 501.4609375 239.02734375 C503.83268148 249.86760888 508.74653209 258.66052198 518 265 C528.89721696 271.4372373 538.41678727 274.42686266 551 272 C556.37862398 270.51447528 561.63046046 268.64069666 566.88037109 266.7578125 C569.84556953 265.69769088 572.82699422 264.68880403 575.8125 263.6875 C577.15248047 263.22923828 577.15248047 263.22923828 578.51953125 262.76171875 C598.25804682 256.70028484 620.35679307 262.90002823 638.09912109 272.08691406 C652.12765962 279.68240636 664.41700524 289.04211924 676 300 C676.89460937 300.83015625 677.78921875 301.6603125 678.7109375 302.515625 C703.38830159 326.15612505 712.83355458 357.78201098 713.921875 391.33984375 C714.99797469 446.4410393 699.28812566 504.71243463 681.56008911 556.38916016 C680.35355382 559.91960472 679.1688705 563.45691453 678 567 C677.75086853 567.75472595 677.50173706 568.5094519 677.24505615 569.28704834 C676.50340162 571.56499154 675.78534171 573.84908106 675.07421875 576.13671875 C674.84974564 576.82256546 674.62527252 577.50841217 674.39399719 578.21504211 C672.99804322 582.82039222 672.90149 586.32082565 674 591 C679.39538186 598.05091846 689.79162001 599.3133019 698 601.3125 C698.74209717 601.49619141 699.48419434 601.67988281 700.2487793 601.86914062 C704.63761277 602.89491013 704.63761277 602.89491013 709 602 C710.03586371 599.65401509 710.03586371 599.65401509 710.74243164 596.70629883 C711.05063843 595.56632446 711.35884521 594.4263501 711.6763916 593.25183105 C712.00103394 591.99954712 712.32567627 590.74726318 712.66015625 589.45703125 C713.00870525 588.14940491 713.35837687 586.84207734 713.70910645 585.53503418 C714.64738964 582.02564031 715.56994578 578.51228944 716.4893074 574.9978981 C717.44468792 571.35534098 718.41332683 567.71631363 719.38061523 564.0769043 C720.90830047 558.3227398 722.42772816 552.56645765 723.94140625 546.80859375 C725.62469503 540.40757595 727.33435439 534.01404378 729.0625 527.625 C748.31118039 456.27647525 767.74679012 373.33048798 729 305 C706.33565058 267.3160222 670.37928117 245.60318757 630.28125 230.25 C628.97714676 229.75062675 628.97714676 229.75062675 627.646698 229.24116516 C623.23011438 227.55387381 618.80880101 225.88063548 614.37939453 224.22729492 C613.54412231 223.91240112 612.7088501 223.59750732 611.8482666 223.27307129 C610.27290407 222.67921942 608.69530473 222.09125381 607.1151123 221.51037598 C600.50625387 219.0079494 595.43581277 215.86586087 590.875 210.375 C578.78667722 196.60323629 563.10157613 184.94309219 544.5390625 182.5546875 C531.05854671 182.07438409 520.25388451 187.35276299 511.73828125 197.765625 Z M285.32617188 205.10351562 C275.04341148 215.78702133 262.15150753 221.78208832 248.53817749 227.14706421 C246.30657333 228.02698047 244.08206037 228.92309844 241.85864258 229.82348633 C238.90681874 231.01806589 235.95325879 232.20811057 232.99755859 233.39306641 C189.20345903 250.97148647 151.75485216 273.24452073 131.8125 317.875 C127.47236184 328.44894094 124.24917076 339.2140336 121.8125 350.375 C121.58022705 351.41466919 121.58022705 351.41466919 121.34326172 352.4753418 C118.25135382 367.44872168 117.62042312 382.57439015 117.6875 397.8125 C117.68965515 398.7035141 117.6918103 399.5945282 117.69403076 400.51254272 C117.7556191 416.50646564 118.7005092 432.15350902 121 448 C121.09474609 448.66161133 121.18949219 449.32322266 121.28710938 450.00488281 C124.87718159 474.9594044 130.11107918 499.49666847 136 524 C136.25430786 525.058703 136.50861572 526.11740601 136.77062988 527.20819092 C138.44010314 534.14181107 140.12952915 541.0702963 141.83810425 547.99438477 C142.39608284 550.25620982 142.95191589 552.51856545 143.50540161 554.78149414 C146.04880252 565.1499469 148.61995667 575.49124585 152.08203125 585.59765625 C152.41191292 586.58468788 152.41191292 586.58468788 152.74845886 587.59165955 C154.48254745 592.41103729 156.7858958 596.06120159 160 600 C166.84515133 601.9829523 174.17658924 600.69969438 181 599 C183.40553857 597.55853084 184.96907383 595.98015302 187 594 C190.375 593.1875 190.375 593.1875 193 593 C192.5342682 590.42676675 192.06689269 587.853847 191.59765625 585.28125 C191.20689851 583.13591337 190.81876727 580.99009625 190.43359375 578.84375 C187.03582109 560.12224766 182.38091778 542.0239224 176.9956665 523.78631592 C165.15974411 483.68917608 153.78813594 443.16682024 153.75 401.0625 C153.74899292 400.28853882 153.74798584 399.51457764 153.74694824 398.71716309 C153.75760027 386.58951159 154.34119824 374.87522452 157 363 C157.14453613 362.33210449 157.28907227 361.66420898 157.43798828 360.97607422 C161.83597182 341.22654679 170.54947856 322.21282483 184 307 C184.72058594 306.17113281 185.44117188 305.34226562 186.18359375 304.48828125 C188.42026127 301.95700934 190.69837979 299.47225757 193 297 C193.68578125 296.24847656 194.3715625 295.49695313 195.078125 294.72265625 C213.92967148 274.8587119 239.86564929 264.03204253 267 263 C278.56999914 262.71126106 289.69877061 264.55292636 301.0625 266.5625 C319.02760824 269.7238859 337.53520044 272.34915341 353.6796875 261.78515625 C361.16017733 256.02996458 366.1789909 249.35543426 368 240 C369.70503597 224.87541751 366.56050504 211.09771599 357 199 C348.64511107 189.55662202 337.89669661 184.57733882 325.328125 183.76171875 C306.85067156 183.26098698 297.4039294 191.99786384 285.32617188 205.10351562 Z M668 611 C672.17908064 613.08954032 672.80410573 613.16552619 677 612 C677 611.67 677 611.34 677 611 C674.03 611 671.06 611 668 611 Z " fill="#A1CBD9" transform="translate(157,0)"/>
</svg>
